{
	"asset":{
		"generator":"Khronos glTF Blender I/O v3.6.27",
		"version":"2.0"
	},
	"scene":0,
	"scenes":[
		{
			"name":"Scene",
			"nodes":[
				0
			]
		}
	],
	"nodes":[
		{
			"mesh":0,
			"name":"logo",
			"rotation":[
				0.7071068286895752,
				0,
				0,
				0.7071068286895752
			]
		}
	],
	"materials":[
		{
			"doubleSided":true,
			"emissiveFactor":[
				0.20000001788139343,
				0.20000001788139343,
				0.20000001788139343
			],
			"name":"Material.001",
			"pbrMetallicRoughness":{
				"metallicFactor":0,
				"roughnessFactor":0.5
			}
		}
	],
	"meshes":[
		{
			"name":"Mesh",
			"primitives":[
				{
					"attributes":{
						"POSITION":0,
						"NORMAL":1
					},
					"indices":2,
					"material":0
				}
			]
		}
	],
	"accessors":[
		{
			"bufferView":0,
			"componentType":5126,
			"count":9660,
			"max":[
				0.11069420725107193,
				0.017621610313653946,
				0.1712130457162857
			],
			"min":[
				-0.11068123579025269,
				-0.017621614038944244,
				-0.09849429130554199
			],
			"type":"VEC3"
		},
		{
			"bufferView":1,
			"componentType":5126,
			"count":9660,
			"type":"VEC3"
		},
		{
			"bufferView":2,
			"componentType":5123,
			"count":16548,
			"type":"SCALAR"
		}
	],
	"bufferViews":[
		{
			"buffer":0,
			"byteLength":115920,
			"byteOffset":0,
			"target":34962
		},
		{
			"buffer":0,
			"byteLength":115920,
			"byteOffset":115920,
			"target":34962
		},
		{
			"buffer":0,
			"byteLength":33096,
			"byteOffset":231840,
			"target":34963
		}
	],
	"buffers":[
		{
			"byteLength":264936,
			"uri":"data:application/octet-stream;base64,"
		}
	]
}
